HIERARCHY
ROOT Hips
{
 OFFSET 0.000000 0.000000 0.000000
 CHANNELS 6 Xposition Yposition Zposition Yrotation Xrotation Zrotation
 JOINT Chest
 {
  OFFSET 0.000000 9.585900 0.002600
  CHANNELS 3 Yrotation Xrotation Zrotation
  JOINT Chest2
  {
   OFFSET 0.000000 9.601200 -0.005300
   CHANNELS 3 Yrotation Xrotation Zrotation
   JOINT Chest3
   {
    OFFSET 0.000000 9.561800 0.000000
    CHANNELS 3 Yrotation Xrotation Zrotation
    JOINT Chest4
    {
     OFFSET 0.000000 9.552100 0.000000
     CHANNELS 3 Yrotation Xrotation Zrotation
     JOINT Neck
     {
      OFFSET 0.000000 14.453000 0.000000
      CHANNELS 3 Yrotation Xrotation Zrotation
      JOINT Head
      {
       OFFSET 0.000000 8.936500 -0.011300
       CHANNELS 3 Yrotation Xrotation Zrotation
       End Site
       {
        OFFSET 0.000000 17.073600 -0.006000
       }
      }
     }
     JOINT RightCollar
     {
      OFFSET -2.921100 9.558500 0.000000
      CHANNELS 3 Yrotation Xrotation Zrotation
      JOINT RightShoulder
      {
       OFFSET -13.519700 0.000000 0.000000
       CHANNELS 3 Yrotation Xrotation Zrotation
       JOINT RightElbow
       {
        OFFSET 0.000000 -29.696600 0.000000
        CHANNELS 3 Yrotation Xrotation Zrotation
        JOINT RightWrist
        {
         OFFSET 0.000000 -24.004700 0.000000
         CHANNELS 3 Yrotation Xrotation Zrotation
         End Site
         {
          OFFSET 0.000000 -17.728500 0.000000
         }
        }
       }
      }
     }
     JOINT LeftCollar
     {
      OFFSET 2.921100 9.558500 0.000000
      CHANNELS 3 Yrotation Xrotation Zrotation
      JOINT LeftShoulder
      {
       OFFSET 13.519700 0.000000 0.000000
       CHANNELS 3 Yrotation Xrotation Zrotation
       JOINT LeftElbow
       {
        OFFSET 0.000000 -29.696600 0.000000
        CHANNELS 3 Yrotation Xrotation Zrotation
        JOINT LeftWrist
        {
         OFFSET 0.000000 -24.004700 0.000000
         CHANNELS 3 Yrotation Xrotation Zrotation
         End Site
         {
          OFFSET 0.000000 -17.728500 0.000000
         }
        }
       }
      }
     }
    }
   }
  }
 }
 JOINT RightHip
 {
  OFFSET -7.771700 -0.012900 -0.001300
  CHANNELS 3 Yrotation Xrotation Zrotation
  JOINT RightKnee
  {
   OFFSET 0.000000 -40.869800 0.001200
   CHANNELS 3 Yrotation Xrotation Zrotation
   JOINT RightAnkle
   {
    OFFSET 0.000000 -39.717900 0.002100
    CHANNELS 3 Yrotation Xrotation Zrotation
    JOINT RightToe
    {
     OFFSET 0.000000 -4.965400 11.033500
     CHANNELS 3 Yrotation Xrotation Zrotation
     End Site
     {
      OFFSET 0.000000 -1.423100 5.872300
     }
    }
   }
  }
 }
 JOINT LeftHip
 {
  OFFSET 7.771700 -0.012900 -0.001300
  CHANNELS 3 Yrotation Xrotation Zrotation
  JOINT LeftKnee
  {
   OFFSET 0.000000 -40.869800 0.001200
   CHANNELS 3 Yrotation Xrotation Zrotation
   JOINT LeftAnkle
   {
    OFFSET 0.000000 -39.717900 0.002100
    CHANNELS 3 Yrotation Xrotation Zrotation
    JOINT LeftToe
    {
     OFFSET 0.000000 -4.965400 11.033500
     CHANNELS 3 Yrotation Xrotation Zrotation
     End Site
     {
      OFFSET 0.000000 -1.423100 5.872300
     }
    }
   }
  }
 }
}
MOTION
Frames: 13
Frame Time: 0.008333
0.000000 85.388000 0.000000 0.000000 -5.767877 0.000000 0.000000 11.653817 0.000000 0.000000 -5.885947 0.000000 0.000000 -0.000000 0.000000 0.000000 -0.000000 0.000000 0.000000 12.528835 0.000000 0.000000 0.711642 0.000000 0.000000 -0.000000 0.000000 0.000000 0.000000 -90.000000 0.000000 -2.309062 0.000000 0.000000 2.309062 0.000000 0.000000 -0.000000 0.000000 0.000000 -0.000000 90.000000 0.000000 -2.309062 0.000000 0.000000 2.309062 0.000000 0.000000 8.520406 0.000000 0.000000 1.905762 0.000000 -0.000000 -4.658285 0.000000 0.000000 -0.000000 0.000000 0.000000 8.520406 0.000000 0.000000 1.905762 0.000000 -0.000000 -4.658285 0.000000 0.000000 -0.000000 0.000000
-15.510692 58.495406 47.295724 178.186885 -29.505354 -5.198596 3.934947 21.618268 4.108588 0.418346 3.000513 0.324697 0.688880 4.873413 0.539144 2.934274 18.406221 2.421728 -6.986815 15.235370 -2.726198 -12.069711 -7.441288 -2.557380 -0.121670 -0.976076 0.788893 -4.309446 -23.182273 -3.779762 116.799006 -45.430599 -129.828527 19.980362 -16.481381 -48.789559 -6.502377 -1.169387 -0.456229 32.416145 -15.231366 -3.840547 -134.686400 -29.449599 147.994195 -8.638272 -13.753247 30.845610 6.606260 -41.078568 -1.990043 -2.324632 67.363131 -2.661706 4.959854 7.331245 8.858086 -0.043229 0.099011 -0.019436 -7.382239 -48.472275 2.921065 27.060428 66.255964 27.959987 -9.687748 32.369799 4.122473 0.517695 -20.002770 -6.409764
-15.510575 58.495559 47.297249 178.184614 -29.502381 -5.194474 3.924526 21.629053 4.100290 0.422042 2.992075 0.322939 0.688651 4.874469 0.539697 2.932670 18.416587 2.427256 -6.998521 15.229895 -2.748958 -12.066566 -7.452381 -2.592471 -0.128059 -0.969739 0.791106 -4.310535 -23.184562 -3.782822 116.826831 -45.430582 -129.850922 19.973911 -16.485325 -48.818075 -6.491652 -1.172138 -0.458007 32.428628 -15.203988 -3.825216 -134.726106 -29.434301 148.016753 -8.637910 -13.745963 30.860400 6.609195 -41.082238 -1.995193 -2.317898 67.361551 -2.653583 4.958095 7.334814 8.855675 -0.042648 0.099311 -0.019386 -7.386154 -48.471351 2.914019 27.049996 66.250352 27.956493 -9.677005 32.368121 4.120094 0.518529 -20.004750 -6.417253
-15.509123 58.495886 47.298946 178.180756 -29.498626 -5.197035 3.927381 21.629660 4.105033 0.420361 2.997678 0.324752 0.686962 4.892642 0.543979 2.934640 18.397457 2.421339 -7.007247 15.232288 -2.766169 -12.058857 -7.476088 -2.642746 -0.138315 -0.960862 0.798605 -4.302695 -23.195668 -3.791537 116.808225 -45.441163 -129.833032 19.967325 -16.467115 -48.845031 -6.488854 -1.156010 -0.452909 32.450918 -15.141736 -3.772799 -134.793530 -29.419992 148.043962 -8.626626 -13.748686 30.913187 6.594619 -41.086762 -1.979817 -2.314717 67.357329 -2.659247 4.960024 7.339162 8.854177 -0.042074 0.099817 -0.019198 -7.388931 -48.473387 2.920488 27.046852 66.249215 27.956766 -9.676187 32.364505 4.121851 0.518447 -20.011896 -6.422101
-15.507632 58.496182 47.300761 178.174983 -29.492734 -5.198939 3.931825 21.628555 4.109738 0.418856 3.005112 0.326323 0.688755 4.894422 0.544566 2.937282 18.403259 2.427092 -7.009430 15.221761 -2.786464 -12.039937 -7.504559 -2.685109 -0.152243 -0.961274 0.807795 -4.314069 -23.180240 -3.793549 116.849320 -45.427575 -129.861611 19.964215 -16.450915 -48.838624 -6.492424 -1.144930 -0.445781 32.469163 -15.132134 -3.775879 -134.805954 -29.411977 148.030837 -8.615277 -13.756551 30.923244 6.567663 -41.094290 -1.956538 -2.289537 67.353016 -2.651900 4.957277 7.345141 8.849437 -0.040415 0.098928 -0.017716 -7.389787 -48.477485 2.927874 27.043480 66.248647 27.955538 -9.671512 32.358669 4.127261 0.518255 -20.010395 -6.427913
-15.506470 58.496674 47.302092 178.174680 -29.487122 -5.202313 3.931570 21.631363 4.112738 0.417988 3.013609 0.329091 0.690525 4.884718 0.543140 2.937035 18.432052 2.439468 -7.005019 15.190661 -2.814821 -12.013028 -7.535182 -2.727698 -0.160373 -0.971804 0.803929 -4.394369 -23.113625 -3.754072 116.992289 -45.380362 -129.956001 19.958423 -16.429478 -48.820412 -6.486213 -1.121226 -0.437136 32.480952 -15.163219 -3.818154 -134.788641 -29.401242 147.982651 -8.608532 -13.765925 30.866198 6.561018 -41.099145 -1.950915 -2.295595 67.348669 -2.657043 4.962711 7.346972 8.844988 -0.044112 0.100546 -0.016250 -7.386547 -48.481720 2.928992 27.034413 66.248699 27.952040 -9.668998 32.353354 4.131332 0.518097 -20.012701 -6.431629
-15.504464 58.497519 47.302824 178.169931 -29.483310 -5.210186 3.927059 21.647659 4.126723 0.429273 3.000048 0.323348 0.690599 4.886047 0.543637 2.928839 18.437939 2.444837 -6.982429 15.181738 -2.851274 -12.013518 -7.549818 -2.728631 -0.165837 -0.940125 0.809933 -4.427819 -23.114517 -3.740887 117.026864 -45.378084 -129.958716 19.954135 -16.419664 -48.806553 -6.471214 -1.108776 -0.439890 32.486233 -15.141206 -3.809468 -134.802497 -29.386951 147.993753 -8.607332 -13.761508 30.810241 6.542810 -41.102980 -1.931115 -2.288998 67.343183 -2.654298 4.966623 7.351131 8.840523 -0.040118 0.100897 -0.017139 -7.385738 -48.487390 2.932742 27.058648 66.249548 27.985520 -9.657550 32.346195 4.144743 0.499388 -20.018549 -6.436445
-15.503997 58.497869 47.303898 178.154173 -29.473743 -5.205999 3.927884 21.643610 4.129452 0.421728 3.008983 0.327044 0.701477 4.884092 0.539123 2.923777 18.431528 2.444449 -6.965550 15.164822 -2.874805 -11.954933 -7.593311 -2.799560 -0.156758 -0.935193 0.804735 -4.450684 -23.103629 -3.730784 116.957992 -45.422939 -129.873251 19.952242 -16.440588 -48.812339 -6.451430 -1.090511 -0.442894 32.501140 -15.083841 -3.790397 -134.864423 -29.363038 148.073135 -8.613965 -13.747065 30.733534 6.540563 -41.114679 -1.922282 -2.281891 67.339336 -2.651351 4.969094 7.354582 8.836775 -0.039665 0.102088 -0.017532 -7.377054 -48.496823 2.938935 27.042276 66.256435 27.969112 -9.635788 32.336526 4.157481 0.496310 -20.018324 -6.442067
-15.504975 58.498657 47.303584 178.153972 -29.468178 -5.203554 3.913240 21.642874 4.126259 0.430319 3.006589 0.323884 0.689022 4.887600 0.544261 2.919426 18.428744 2.441046 -6.939739 15.143139 -2.903636 -11.888802 -7.639496 -2.869209 -0.141693 -0.925378 0.797348 -4.472819 -23.094425 -3.720472 116.923524 -45.460997 -129.819894 19.944933 -16.433278 -48.787683 -6.424542 -1.068782 -0.449312 32.508176 -15.071311 -3.794606 -134.862214 -29.351929 148.050192 -8.603052 -13.730125 30.677537 6.535001 -41.118997 -1.922541 -2.275277 67.338664 -2.648316 4.967544 7.351585 8.835230 -0.038993 0.104572 -0.017941 -7.374894 -48.500691 2.936265 27.018677 66.260929 27.944389 -9.621159 32.331267 4.165720 0.495499 -20.020466 -6.445543
-15.508241 58.499274 47.302676 178.144328 -29.462738 -5.185726 3.904824 21.640862 4.112955 0.427014 3.006717 0.321417 0.687788 4.886686 0.544034 2.912257 18.426509 2.442172 -6.910510 15.123120 -2.930553 -11.832379 -7.679247 -2.923197 -0.130404 -0.883172 0.807790 -4.500380 -23.095747 -3.718508 116.947780 -45.485983 -129.809438 19.956575 -16.445181 -48.793348 -6.399906 -1.056812 -0.460259 32.513561 -15.058804 -3.793644 -134.838830 -29.365565 147.977857 -8.596251 -13.724058 30.652263 6.553910 -41.124338 -1.942594 -2.266846 67.341090 -2.641020 4.966000 7.344252 8.834342 -0.035112 0.106906 -0.017080 -7.353805 -48.502896 2.913126 26.996643 66.261015 27.921657 -9.599073 32.323099 4.181075 0.492349 -20.014267 -6.454225
-15.512409 58.499650 47.301509 178.133727 -29.455233 -5.164704 3.899899 21.635419 4.096825 0.412989 3.007560 0.328675 0.684558 4.883903 0.543451 2.916012 18.423930 2.433631 -6.883041 15.103847 -2.953581 -11.773108 -7.717704 -2.974846 -0.119228 -0.868233 0.802442 -4.527023 -23.068239 -3.696338 116.957040 -45.511347 -129.786199 19.939651 -16.415219 -48.757538 -6.380065 -1.042305 -0.470874 32.511672 -15.060393 -3.797085 -134.838320 -29.387194 147.946609 -8.593838 -13.706029 30.589925 6.584550 -41.132043 -1.973905 -2.261812 67.345082 -2.631088 4.969551 7.336401 8.835577 -0.038241 0.109828 -0.016684 -7.330507 -48.507876 2.883271 26.996257 66.256142 27.921506 -9.583079 32.318036 4.194347 0.478368 -20.012897 -6.458827
-15.515615 58.499827 47.300246 178.129475 -29.444948 -5.154432 3.897022 21.625857 4.087680 0.405374 3.007461 0.331823 0.688170 4.882612 0.541341 2.906419 18.420393 2.437269 -6.858788 15.090480 -2.972554 -11.747187 -7.730131 -2.998473 -0.107914 -0.853674 0.795783 -4.547551 -23.048681 -3.676104 116.959781 -45.545204 -129.751482 19.931104 -16.396636 -48.743395 -6.356559 -1.018259 -0.482652 32.503282 -15.055093 -3.800259 -134.859727 -29.413877 147.936473 -8.587715 -13.696139 30.547588 6.601761 -41.142441 -1.992157 -2.271642 67.348474 -2.635945 4.970448 7.331299 8.835737 -0.037158 0.110737 -0.016621 -7.323263 -48.517439 2.867167 27.000461 66.253516 27.925208 -9.564987 32.319199 4.205546 0.466260 -20.016811 -6.461753
-15.518602 58.500323 47.297692 178.125910 -29.440054 -5.146244 3.885644 21.623097 4.081366 0.409504 3.007695 0.330524 0.687725 4.880498 0.540427 2.901069 18.417437 2.439521 -6.846811 15.088204 -2.984463 -11.709859 -7.755419 -3.025423 -0.108555 -0.821221 0.804160 -4.534792 -23.050815 -3.678829 116.956638 -45.582792 -129.723219 19.937538 -16.396748 -48.749579 -6.329506 -0.982645 -0.488127 32.473305 -15.046052 -3.807742 -134.892029 -29.442863 147.947949 -8.579282 -13.697815 30.529148 6.613010 -41.147212 -2.004355 -2.270290 67.352978 -2.633310 4.967892 7.324841 8.835955 -0.036432 0.111316 -0.016587 -7.317572 -48.521759 2.855522 27.021493 66.251704 27.939897 -9.547022 32.315279 4.223118 0.459935 -20.018103 -6.467331
